<mxfile host="Electron" modified="2023-04-17T08:13:26.341Z" agent="Mozilla/5.0 (Windows NT 10.0; Win64; x64) AppleWebKit/537.36 (KHTML, like Gecko) draw.io/21.1.2 Chrome/106.0.5249.199 Electron/21.4.3 Safari/537.36" etag="0z5RG_BgomWFHrBiH-VZ" version="21.1.2" type="device" pages="2">
  <diagram name="Page-1" id="QrdpI3hEpEdpG0QhBb-A">
    <mxGraphModel dx="1733" dy="527" grid="1" gridSize="10" guides="1" tooltips="1" connect="1" arrows="1" fold="1" page="1" pageScale="1" pageWidth="850" pageHeight="1100" math="0" shadow="0">
      <root>
        <mxCell id="0" />
        <mxCell id="1" parent="0" />
        <mxCell id="SQ38ImTYvDDmrSijPcMZ-6" style="rounded=0;orthogonalLoop=1;jettySize=auto;html=1;endArrow=none;endFill=0;" edge="1" parent="1" source="SQ38ImTYvDDmrSijPcMZ-1" target="SQ38ImTYvDDmrSijPcMZ-2">
          <mxGeometry relative="1" as="geometry" />
        </mxCell>
        <mxCell id="SQ38ImTYvDDmrSijPcMZ-7" style="rounded=0;orthogonalLoop=1;jettySize=auto;html=1;entryX=0.5;entryY=1;entryDx=0;entryDy=0;endArrow=none;endFill=0;" edge="1" parent="1" source="SQ38ImTYvDDmrSijPcMZ-1" target="SQ38ImTYvDDmrSijPcMZ-3">
          <mxGeometry relative="1" as="geometry" />
        </mxCell>
        <mxCell id="SQ38ImTYvDDmrSijPcMZ-8" style="rounded=0;orthogonalLoop=1;jettySize=auto;html=1;endArrow=none;endFill=0;" edge="1" parent="1" source="SQ38ImTYvDDmrSijPcMZ-1" target="SQ38ImTYvDDmrSijPcMZ-5">
          <mxGeometry relative="1" as="geometry" />
        </mxCell>
        <mxCell id="SQ38ImTYvDDmrSijPcMZ-9" style="rounded=0;orthogonalLoop=1;jettySize=auto;html=1;endArrow=none;endFill=0;" edge="1" parent="1" source="SQ38ImTYvDDmrSijPcMZ-1" target="SQ38ImTYvDDmrSijPcMZ-4">
          <mxGeometry relative="1" as="geometry" />
        </mxCell>
        <mxCell id="SQ38ImTYvDDmrSijPcMZ-32" style="edgeStyle=orthogonalEdgeStyle;rounded=0;orthogonalLoop=1;jettySize=auto;html=1;endArrow=none;endFill=0;" edge="1" parent="1" source="SQ38ImTYvDDmrSijPcMZ-1" target="SQ38ImTYvDDmrSijPcMZ-31">
          <mxGeometry relative="1" as="geometry" />
        </mxCell>
        <mxCell id="SQ38ImTYvDDmrSijPcMZ-38" value="( 0 , n )" style="edgeLabel;html=1;align=center;verticalAlign=middle;resizable=0;points=[];" vertex="1" connectable="0" parent="SQ38ImTYvDDmrSijPcMZ-32">
          <mxGeometry x="-0.6976" y="-3" relative="1" as="geometry">
            <mxPoint x="15" y="-3" as="offset" />
          </mxGeometry>
        </mxCell>
        <mxCell id="SQ38ImTYvDDmrSijPcMZ-1" value="STUDENT" style="rounded=0;whiteSpace=wrap;html=1;fillColor=#f5f5f5;fontColor=#333333;strokeColor=#666666;" vertex="1" parent="1">
          <mxGeometry x="-65" y="260" width="100" height="40" as="geometry" />
        </mxCell>
        <mxCell id="SQ38ImTYvDDmrSijPcMZ-2" value="name" style="ellipse;whiteSpace=wrap;html=1;" vertex="1" parent="1">
          <mxGeometry x="-50" y="170" width="90" height="40" as="geometry" />
        </mxCell>
        <mxCell id="SQ38ImTYvDDmrSijPcMZ-3" value="&lt;u&gt;&lt;b&gt;stu_id&lt;/b&gt;&lt;/u&gt;" style="ellipse;whiteSpace=wrap;html=1;" vertex="1" parent="1">
          <mxGeometry x="50" y="180" width="90" height="40" as="geometry" />
        </mxCell>
        <mxCell id="SQ38ImTYvDDmrSijPcMZ-4" value="&lt;span&gt;email&lt;/span&gt;" style="ellipse;whiteSpace=wrap;html=1;fontStyle=0;" vertex="1" parent="1">
          <mxGeometry x="-170" y="180" width="90" height="40" as="geometry" />
        </mxCell>
        <mxCell id="SQ38ImTYvDDmrSijPcMZ-5" value="&lt;span&gt;tel&lt;/span&gt;" style="ellipse;whiteSpace=wrap;html=1;fontStyle=0;" vertex="1" parent="1">
          <mxGeometry x="-120" y="130" width="90" height="40" as="geometry" />
        </mxCell>
        <mxCell id="SQ38ImTYvDDmrSijPcMZ-10" style="rounded=0;orthogonalLoop=1;jettySize=auto;html=1;endArrow=none;endFill=0;" edge="1" parent="1" source="SQ38ImTYvDDmrSijPcMZ-14" target="SQ38ImTYvDDmrSijPcMZ-15">
          <mxGeometry relative="1" as="geometry" />
        </mxCell>
        <mxCell id="SQ38ImTYvDDmrSijPcMZ-11" style="rounded=0;orthogonalLoop=1;jettySize=auto;html=1;entryX=0.5;entryY=1;entryDx=0;entryDy=0;endArrow=none;endFill=0;exitX=0.647;exitY=-0.004;exitDx=0;exitDy=0;exitPerimeter=0;" edge="1" parent="1" source="SQ38ImTYvDDmrSijPcMZ-14" target="SQ38ImTYvDDmrSijPcMZ-16">
          <mxGeometry relative="1" as="geometry" />
        </mxCell>
        <mxCell id="SQ38ImTYvDDmrSijPcMZ-14" value="COURSE" style="rounded=0;whiteSpace=wrap;html=1;fillColor=#f5f5f5;strokeColor=#666666;fontColor=#333333;" vertex="1" parent="1">
          <mxGeometry x="510" y="260" width="100" height="40" as="geometry" />
        </mxCell>
        <mxCell id="SQ38ImTYvDDmrSijPcMZ-15" value="course_title" style="ellipse;whiteSpace=wrap;html=1;" vertex="1" parent="1">
          <mxGeometry x="470" y="160" width="90" height="40" as="geometry" />
        </mxCell>
        <mxCell id="SQ38ImTYvDDmrSijPcMZ-16" value="&lt;u&gt;&lt;b&gt;course_no&lt;/b&gt;&lt;/u&gt;" style="ellipse;whiteSpace=wrap;html=1;" vertex="1" parent="1">
          <mxGeometry x="580" y="170" width="90" height="40" as="geometry" />
        </mxCell>
        <mxCell id="SQ38ImTYvDDmrSijPcMZ-19" value="weekly_sche" style="ellipse;whiteSpace=wrap;html=1;" vertex="1" parent="1">
          <mxGeometry x="420" y="200" width="90" height="40" as="geometry" />
        </mxCell>
        <mxCell id="SQ38ImTYvDDmrSijPcMZ-20" style="rounded=0;orthogonalLoop=1;jettySize=auto;html=1;endArrow=none;endFill=0;entryX=0.5;entryY=1;entryDx=0;entryDy=0;exitX=0.411;exitY=-0.003;exitDx=0;exitDy=0;exitPerimeter=0;" edge="1" parent="1" source="SQ38ImTYvDDmrSijPcMZ-14" target="SQ38ImTYvDDmrSijPcMZ-19">
          <mxGeometry relative="1" as="geometry">
            <mxPoint x="510" y="250" as="sourcePoint" />
            <mxPoint x="525" y="210" as="targetPoint" />
          </mxGeometry>
        </mxCell>
        <mxCell id="SQ38ImTYvDDmrSijPcMZ-23" style="rounded=0;orthogonalLoop=1;jettySize=auto;html=1;entryX=0.5;entryY=1;entryDx=0;entryDy=0;endArrow=none;endFill=0;" edge="1" parent="1" source="SQ38ImTYvDDmrSijPcMZ-22" target="SQ38ImTYvDDmrSijPcMZ-28">
          <mxGeometry relative="1" as="geometry">
            <mxPoint x="169.8800000000001" y="310.30000000000007" as="targetPoint" />
          </mxGeometry>
        </mxCell>
        <mxCell id="SQ38ImTYvDDmrSijPcMZ-22" value="&lt;u&gt;form_id&lt;/u&gt;" style="ellipse;whiteSpace=wrap;html=1;fontStyle=1" vertex="1" parent="1">
          <mxGeometry x="160" y="365" width="70" height="40" as="geometry" />
        </mxCell>
        <mxCell id="SQ38ImTYvDDmrSijPcMZ-26" style="rounded=0;orthogonalLoop=1;jettySize=auto;html=1;entryX=0.516;entryY=1.002;entryDx=0;entryDy=0;endArrow=none;endFill=0;entryPerimeter=0;" edge="1" parent="1" source="SQ38ImTYvDDmrSijPcMZ-27" target="SQ38ImTYvDDmrSijPcMZ-28">
          <mxGeometry relative="1" as="geometry">
            <mxPoint x="300" y="315" as="targetPoint" />
          </mxGeometry>
        </mxCell>
        <mxCell id="SQ38ImTYvDDmrSijPcMZ-27" value="&lt;span&gt;reg_date&lt;/span&gt;" style="ellipse;whiteSpace=wrap;html=1;fontStyle=0" vertex="1" parent="1">
          <mxGeometry x="280" y="335" width="70" height="40" as="geometry" />
        </mxCell>
        <mxCell id="SQ38ImTYvDDmrSijPcMZ-35" style="edgeStyle=orthogonalEdgeStyle;rounded=0;orthogonalLoop=1;jettySize=auto;html=1;endArrow=none;endFill=0;" edge="1" parent="1" source="SQ38ImTYvDDmrSijPcMZ-28" target="SQ38ImTYvDDmrSijPcMZ-34">
          <mxGeometry relative="1" as="geometry" />
        </mxCell>
        <mxCell id="SQ38ImTYvDDmrSijPcMZ-28" value="REG_FORM" style="rounded=0;whiteSpace=wrap;html=1;fillColor=#f5f5f5;fontColor=#333333;strokeColor=#666666;" vertex="1" parent="1">
          <mxGeometry x="250" y="255" width="90" height="50" as="geometry" />
        </mxCell>
        <mxCell id="SQ38ImTYvDDmrSijPcMZ-29" value="&lt;span&gt;appro_date&lt;/span&gt;" style="ellipse;whiteSpace=wrap;html=1;fontStyle=0" vertex="1" parent="1">
          <mxGeometry x="240" y="375" width="70" height="40" as="geometry" />
        </mxCell>
        <mxCell id="SQ38ImTYvDDmrSijPcMZ-30" style="rounded=0;orthogonalLoop=1;jettySize=auto;html=1;entryX=0.5;entryY=1;entryDx=0;entryDy=0;endArrow=none;endFill=0;exitX=0.5;exitY=0;exitDx=0;exitDy=0;" edge="1" parent="1" source="SQ38ImTYvDDmrSijPcMZ-29" target="SQ38ImTYvDDmrSijPcMZ-28">
          <mxGeometry relative="1" as="geometry">
            <mxPoint x="306" y="320" as="targetPoint" />
            <mxPoint x="323" y="346" as="sourcePoint" />
          </mxGeometry>
        </mxCell>
        <mxCell id="SQ38ImTYvDDmrSijPcMZ-33" style="edgeStyle=orthogonalEdgeStyle;rounded=0;orthogonalLoop=1;jettySize=auto;html=1;entryX=0;entryY=0.5;entryDx=0;entryDy=0;endArrow=none;endFill=0;" edge="1" parent="1" source="SQ38ImTYvDDmrSijPcMZ-31" target="SQ38ImTYvDDmrSijPcMZ-28">
          <mxGeometry relative="1" as="geometry" />
        </mxCell>
        <mxCell id="SQ38ImTYvDDmrSijPcMZ-39" value="( 1, 1 )" style="edgeLabel;html=1;align=center;verticalAlign=middle;resizable=0;points=[];" vertex="1" connectable="0" parent="SQ38ImTYvDDmrSijPcMZ-33">
          <mxGeometry x="0.6151" y="1" relative="1" as="geometry">
            <mxPoint x="-14" y="1" as="offset" />
          </mxGeometry>
        </mxCell>
        <mxCell id="SQ38ImTYvDDmrSijPcMZ-31" value="make" style="rhombus;whiteSpace=wrap;html=1;fillColor=#fff2cc;strokeColor=#d6b656;" vertex="1" parent="1">
          <mxGeometry x="100" y="255" width="70" height="50" as="geometry" />
        </mxCell>
        <mxCell id="SQ38ImTYvDDmrSijPcMZ-36" style="edgeStyle=orthogonalEdgeStyle;rounded=0;orthogonalLoop=1;jettySize=auto;html=1;endArrow=none;endFill=0;" edge="1" parent="1" source="SQ38ImTYvDDmrSijPcMZ-34" target="SQ38ImTYvDDmrSijPcMZ-14">
          <mxGeometry relative="1" as="geometry" />
        </mxCell>
        <mxCell id="SQ38ImTYvDDmrSijPcMZ-40" value="( 0 , n )" style="edgeLabel;html=1;align=center;verticalAlign=middle;resizable=0;points=[];" vertex="1" connectable="0" parent="SQ38ImTYvDDmrSijPcMZ-36">
          <mxGeometry x="0.2487" relative="1" as="geometry">
            <mxPoint x="-10" as="offset" />
          </mxGeometry>
        </mxCell>
        <mxCell id="SQ38ImTYvDDmrSijPcMZ-34" value="belong to" style="rhombus;whiteSpace=wrap;html=1;fillColor=#fff2cc;strokeColor=#d6b656;" vertex="1" parent="1">
          <mxGeometry x="393" y="255" width="65" height="50" as="geometry" />
        </mxCell>
        <mxCell id="SQ38ImTYvDDmrSijPcMZ-41" value="( 1 , n )&amp;nbsp;" style="edgeLabel;html=1;align=center;verticalAlign=middle;resizable=0;points=[];" vertex="1" connectable="0" parent="1">
          <mxGeometry x="369.9953846153845" y="280" as="geometry" />
        </mxCell>
        <mxCell id="SQ38ImTYvDDmrSijPcMZ-44" value="&lt;span&gt;status&lt;/span&gt;" style="ellipse;whiteSpace=wrap;html=1;fontStyle=0" vertex="1" parent="1">
          <mxGeometry x="335" y="375" width="70" height="40" as="geometry" />
        </mxCell>
        <mxCell id="SQ38ImTYvDDmrSijPcMZ-45" style="rounded=0;orthogonalLoop=1;jettySize=auto;html=1;entryX=0.811;entryY=0.992;entryDx=0;entryDy=0;endArrow=none;endFill=0;entryPerimeter=0;exitX=0.5;exitY=0;exitDx=0;exitDy=0;" edge="1" parent="1" source="SQ38ImTYvDDmrSijPcMZ-44" target="SQ38ImTYvDDmrSijPcMZ-28">
          <mxGeometry relative="1" as="geometry">
            <mxPoint x="306" y="315" as="targetPoint" />
            <mxPoint x="324" y="346" as="sourcePoint" />
          </mxGeometry>
        </mxCell>
        <mxCell id="SQ38ImTYvDDmrSijPcMZ-46" value="&lt;span&gt;semester&lt;/span&gt;" style="ellipse;whiteSpace=wrap;html=1;fontStyle=0" vertex="1" parent="1">
          <mxGeometry x="230" y="170" width="70" height="40" as="geometry" />
        </mxCell>
        <mxCell id="SQ38ImTYvDDmrSijPcMZ-47" style="rounded=0;orthogonalLoop=1;jettySize=auto;html=1;entryX=0.5;entryY=1;entryDx=0;entryDy=0;endArrow=none;endFill=0;exitX=0.5;exitY=0;exitDx=0;exitDy=0;" edge="1" parent="1" source="SQ38ImTYvDDmrSijPcMZ-28" target="SQ38ImTYvDDmrSijPcMZ-46">
          <mxGeometry relative="1" as="geometry">
            <mxPoint x="333" y="315" as="targetPoint" />
            <mxPoint x="380" y="385" as="sourcePoint" />
          </mxGeometry>
        </mxCell>
        <mxCell id="SQ38ImTYvDDmrSijPcMZ-48" value="&lt;span&gt;appro_by&lt;/span&gt;" style="ellipse;whiteSpace=wrap;html=1;fontStyle=0" vertex="1" parent="1">
          <mxGeometry x="310" y="170" width="70" height="40" as="geometry" />
        </mxCell>
        <mxCell id="SQ38ImTYvDDmrSijPcMZ-49" style="rounded=0;orthogonalLoop=1;jettySize=auto;html=1;entryX=0.5;entryY=1;entryDx=0;entryDy=0;endArrow=none;endFill=0;exitX=0.5;exitY=0;exitDx=0;exitDy=0;" edge="1" parent="1" source="SQ38ImTYvDDmrSijPcMZ-28" target="SQ38ImTYvDDmrSijPcMZ-48">
          <mxGeometry relative="1" as="geometry">
            <mxPoint x="275" y="220" as="targetPoint" />
            <mxPoint x="305" y="265" as="sourcePoint" />
          </mxGeometry>
        </mxCell>
      </root>
    </mxGraphModel>
  </diagram>
  <diagram id="H0HoagSN7zwbepq1koee" name="Page-2">
    <mxGraphModel dx="2044" dy="713" grid="1" gridSize="10" guides="1" tooltips="1" connect="1" arrows="1" fold="1" page="1" pageScale="1" pageWidth="850" pageHeight="1100" math="0" shadow="0">
      <root>
        <mxCell id="0" />
        <mxCell id="1" parent="0" />
        <mxCell id="IZJPOaPg8CAI-Ycyml6G-1" style="rounded=0;orthogonalLoop=1;jettySize=auto;html=1;endArrow=none;endFill=0;fontSize=14;" edge="1" parent="1" source="IZJPOaPg8CAI-Ycyml6G-7" target="IZJPOaPg8CAI-Ycyml6G-8">
          <mxGeometry relative="1" as="geometry" />
        </mxCell>
        <mxCell id="IZJPOaPg8CAI-Ycyml6G-2" style="rounded=0;orthogonalLoop=1;jettySize=auto;html=1;entryX=0.5;entryY=1;entryDx=0;entryDy=0;endArrow=none;endFill=0;fontSize=14;" edge="1" parent="1" source="IZJPOaPg8CAI-Ycyml6G-7" target="IZJPOaPg8CAI-Ycyml6G-9">
          <mxGeometry relative="1" as="geometry" />
        </mxCell>
        <mxCell id="IZJPOaPg8CAI-Ycyml6G-3" style="rounded=0;orthogonalLoop=1;jettySize=auto;html=1;endArrow=none;endFill=0;fontSize=14;" edge="1" parent="1" source="IZJPOaPg8CAI-Ycyml6G-7" target="IZJPOaPg8CAI-Ycyml6G-11">
          <mxGeometry relative="1" as="geometry" />
        </mxCell>
        <mxCell id="IZJPOaPg8CAI-Ycyml6G-4" style="rounded=0;orthogonalLoop=1;jettySize=auto;html=1;endArrow=none;endFill=0;fontSize=14;" edge="1" parent="1" source="IZJPOaPg8CAI-Ycyml6G-7" target="IZJPOaPg8CAI-Ycyml6G-10">
          <mxGeometry relative="1" as="geometry" />
        </mxCell>
        <mxCell id="IZJPOaPg8CAI-Ycyml6G-165" style="rounded=0;orthogonalLoop=1;jettySize=auto;html=1;entryX=0.5;entryY=0;entryDx=0;entryDy=0;endArrow=none;endFill=0;fontSize=14;" edge="1" parent="1" source="IZJPOaPg8CAI-Ycyml6G-7" target="IZJPOaPg8CAI-Ycyml6G-157">
          <mxGeometry relative="1" as="geometry" />
        </mxCell>
        <mxCell id="IZJPOaPg8CAI-Ycyml6G-166" value="(1 , 1 )" style="edgeLabel;html=1;align=center;verticalAlign=middle;resizable=0;points=[];fontSize=14;" vertex="1" connectable="0" parent="IZJPOaPg8CAI-Ycyml6G-165">
          <mxGeometry x="-0.636" y="-2" relative="1" as="geometry">
            <mxPoint x="1" y="14" as="offset" />
          </mxGeometry>
        </mxCell>
        <mxCell id="IZJPOaPg8CAI-Ycyml6G-7" value="BOOK" style="rounded=0;whiteSpace=wrap;html=1;fillColor=#f5f5f5;fontColor=#333333;strokeColor=#666666;fontSize=14;" vertex="1" parent="1">
          <mxGeometry x="-65" y="260" width="100" height="40" as="geometry" />
        </mxCell>
        <mxCell id="IZJPOaPg8CAI-Ycyml6G-8" value="title" style="ellipse;whiteSpace=wrap;html=1;fontSize=14;" vertex="1" parent="1">
          <mxGeometry x="-50" y="170" width="90" height="40" as="geometry" />
        </mxCell>
        <mxCell id="IZJPOaPg8CAI-Ycyml6G-9" value="&lt;u style=&quot;font-size: 14px;&quot;&gt;&lt;b style=&quot;font-size: 14px;&quot;&gt;book_id&lt;/b&gt;&lt;/u&gt;" style="ellipse;whiteSpace=wrap;html=1;fontSize=14;" vertex="1" parent="1">
          <mxGeometry x="50" y="180" width="90" height="40" as="geometry" />
        </mxCell>
        <mxCell id="IZJPOaPg8CAI-Ycyml6G-10" value="&lt;span style=&quot;font-size: 14px;&quot;&gt;year_of_public&lt;/span&gt;" style="ellipse;whiteSpace=wrap;html=1;fontStyle=0;fontSize=14;" vertex="1" parent="1">
          <mxGeometry x="-190" y="170" width="90" height="40" as="geometry" />
        </mxCell>
        <mxCell id="IZJPOaPg8CAI-Ycyml6G-11" value="&lt;span style=&quot;font-size: 14px;&quot;&gt;publisher&lt;/span&gt;" style="ellipse;whiteSpace=wrap;html=1;fontStyle=0;fontSize=14;" vertex="1" parent="1">
          <mxGeometry x="-120" y="130" width="90" height="40" as="geometry" />
        </mxCell>
        <mxCell id="IZJPOaPg8CAI-Ycyml6G-40" value="&lt;span style=&quot;font-size: 14px;&quot;&gt;description&lt;/span&gt;" style="ellipse;whiteSpace=wrap;html=1;fontStyle=0;fontSize=14;" vertex="1" parent="1">
          <mxGeometry x="-190" y="230" width="90" height="40" as="geometry" />
        </mxCell>
        <mxCell id="IZJPOaPg8CAI-Ycyml6G-41" value="&lt;span style=&quot;font-size: 14px;&quot;&gt;category&lt;/span&gt;" style="ellipse;whiteSpace=wrap;html=1;fontStyle=0;fontSize=14;" vertex="1" parent="1">
          <mxGeometry x="-190" y="290" width="90" height="40" as="geometry" />
        </mxCell>
        <mxCell id="IZJPOaPg8CAI-Ycyml6G-42" value="&lt;span style=&quot;font-size: 14px;&quot;&gt;price&lt;/span&gt;" style="ellipse;whiteSpace=wrap;html=1;fontStyle=0;fontSize=14;" vertex="1" parent="1">
          <mxGeometry x="-170" y="350" width="90" height="40" as="geometry" />
        </mxCell>
        <mxCell id="IZJPOaPg8CAI-Ycyml6G-43" value="&lt;span style=&quot;font-size: 14px;&quot;&gt;stock&lt;/span&gt;" style="ellipse;whiteSpace=wrap;html=1;fontStyle=0;fontSize=14;" vertex="1" parent="1">
          <mxGeometry x="-270" y="350" width="90" height="40" as="geometry" />
        </mxCell>
        <mxCell id="IZJPOaPg8CAI-Ycyml6G-44" value="&lt;span style=&quot;font-size: 14px;&quot;&gt;number_pages&lt;/span&gt;" style="ellipse;whiteSpace=wrap;html=1;fontStyle=0;fontSize=14;" vertex="1" parent="1">
          <mxGeometry x="-120" y="390" width="90" height="40" as="geometry" />
        </mxCell>
        <mxCell id="IZJPOaPg8CAI-Ycyml6G-45" style="rounded=0;orthogonalLoop=1;jettySize=auto;html=1;entryX=0.5;entryY=1;entryDx=0;entryDy=0;endArrow=none;endFill=0;exitX=0.5;exitY=0;exitDx=0;exitDy=0;fontSize=14;" edge="1" parent="1" source="IZJPOaPg8CAI-Ycyml6G-44" target="IZJPOaPg8CAI-Ycyml6G-7">
          <mxGeometry relative="1" as="geometry">
            <mxPoint x="32" y="270" as="sourcePoint" />
            <mxPoint x="105" y="230" as="targetPoint" />
          </mxGeometry>
        </mxCell>
        <mxCell id="IZJPOaPg8CAI-Ycyml6G-46" style="rounded=0;orthogonalLoop=1;jettySize=auto;html=1;entryX=0.5;entryY=1;entryDx=0;entryDy=0;endArrow=none;endFill=0;exitX=0.5;exitY=0;exitDx=0;exitDy=0;fontSize=14;" edge="1" parent="1" source="IZJPOaPg8CAI-Ycyml6G-43" target="IZJPOaPg8CAI-Ycyml6G-7">
          <mxGeometry relative="1" as="geometry">
            <mxPoint x="-65" y="400" as="sourcePoint" />
            <mxPoint x="-5" y="310" as="targetPoint" />
          </mxGeometry>
        </mxCell>
        <mxCell id="IZJPOaPg8CAI-Ycyml6G-47" style="rounded=0;orthogonalLoop=1;jettySize=auto;html=1;entryX=0;entryY=0.5;entryDx=0;entryDy=0;endArrow=none;endFill=0;exitX=1;exitY=0;exitDx=0;exitDy=0;fontSize=14;" edge="1" parent="1" source="IZJPOaPg8CAI-Ycyml6G-41" target="IZJPOaPg8CAI-Ycyml6G-7">
          <mxGeometry relative="1" as="geometry">
            <mxPoint x="-5" y="360" as="sourcePoint" />
            <mxPoint x="-5" y="310" as="targetPoint" />
          </mxGeometry>
        </mxCell>
        <mxCell id="IZJPOaPg8CAI-Ycyml6G-48" style="rounded=0;orthogonalLoop=1;jettySize=auto;html=1;entryX=0;entryY=0.25;entryDx=0;entryDy=0;endArrow=none;endFill=0;exitX=1;exitY=0.5;exitDx=0;exitDy=0;fontSize=14;" edge="1" parent="1" source="IZJPOaPg8CAI-Ycyml6G-40" target="IZJPOaPg8CAI-Ycyml6G-7">
          <mxGeometry relative="1" as="geometry">
            <mxPoint x="-103" y="306" as="sourcePoint" />
            <mxPoint x="-55" y="290" as="targetPoint" />
          </mxGeometry>
        </mxCell>
        <mxCell id="IZJPOaPg8CAI-Ycyml6G-49" style="rounded=0;orthogonalLoop=1;jettySize=auto;html=1;entryX=0.25;entryY=1;entryDx=0;entryDy=0;endArrow=none;endFill=0;exitX=0.74;exitY=0.105;exitDx=0;exitDy=0;exitPerimeter=0;fontSize=14;" edge="1" parent="1" source="IZJPOaPg8CAI-Ycyml6G-42" target="IZJPOaPg8CAI-Ycyml6G-7">
          <mxGeometry relative="1" as="geometry">
            <mxPoint x="-90" y="260" as="sourcePoint" />
            <mxPoint x="-55" y="280" as="targetPoint" />
          </mxGeometry>
        </mxCell>
        <mxCell id="IZJPOaPg8CAI-Ycyml6G-50" style="rounded=0;orthogonalLoop=1;jettySize=auto;html=1;endArrow=none;endFill=0;fontSize=14;" edge="1" parent="1" source="IZJPOaPg8CAI-Ycyml6G-54" target="IZJPOaPg8CAI-Ycyml6G-55">
          <mxGeometry relative="1" as="geometry" />
        </mxCell>
        <mxCell id="IZJPOaPg8CAI-Ycyml6G-51" style="rounded=0;orthogonalLoop=1;jettySize=auto;html=1;entryX=0.5;entryY=1;entryDx=0;entryDy=0;endArrow=none;endFill=0;fontSize=14;" edge="1" parent="1" source="IZJPOaPg8CAI-Ycyml6G-54" target="IZJPOaPg8CAI-Ycyml6G-56">
          <mxGeometry relative="1" as="geometry" />
        </mxCell>
        <mxCell id="IZJPOaPg8CAI-Ycyml6G-52" style="rounded=0;orthogonalLoop=1;jettySize=auto;html=1;endArrow=none;endFill=0;fontSize=14;" edge="1" parent="1" source="IZJPOaPg8CAI-Ycyml6G-54" target="IZJPOaPg8CAI-Ycyml6G-58">
          <mxGeometry relative="1" as="geometry" />
        </mxCell>
        <mxCell id="IZJPOaPg8CAI-Ycyml6G-53" style="rounded=0;orthogonalLoop=1;jettySize=auto;html=1;endArrow=none;endFill=0;fontSize=14;" edge="1" parent="1" source="IZJPOaPg8CAI-Ycyml6G-54" target="IZJPOaPg8CAI-Ycyml6G-57">
          <mxGeometry relative="1" as="geometry" />
        </mxCell>
        <mxCell id="IZJPOaPg8CAI-Ycyml6G-99" style="rounded=0;orthogonalLoop=1;jettySize=auto;html=1;entryX=0.5;entryY=0;entryDx=0;entryDy=0;endArrow=none;endFill=0;fontSize=14;" edge="1" parent="1" source="IZJPOaPg8CAI-Ycyml6G-54" target="IZJPOaPg8CAI-Ycyml6G-97">
          <mxGeometry relative="1" as="geometry" />
        </mxCell>
        <mxCell id="IZJPOaPg8CAI-Ycyml6G-110" value="( 0 , n )" style="edgeLabel;html=1;align=center;verticalAlign=middle;resizable=0;points=[];fontSize=14;" vertex="1" connectable="0" parent="IZJPOaPg8CAI-Ycyml6G-99">
          <mxGeometry x="-0.7429" relative="1" as="geometry">
            <mxPoint y="8" as="offset" />
          </mxGeometry>
        </mxCell>
        <mxCell id="IZJPOaPg8CAI-Ycyml6G-54" value="SUPPLIER" style="rounded=0;whiteSpace=wrap;html=1;fillColor=#f5f5f5;fontColor=#333333;strokeColor=#666666;fontSize=14;" vertex="1" parent="1">
          <mxGeometry x="455" y="260" width="100" height="40" as="geometry" />
        </mxCell>
        <mxCell id="IZJPOaPg8CAI-Ycyml6G-55" value="sup_name" style="ellipse;whiteSpace=wrap;html=1;fontSize=14;" vertex="1" parent="1">
          <mxGeometry x="470" y="170" width="90" height="40" as="geometry" />
        </mxCell>
        <mxCell id="IZJPOaPg8CAI-Ycyml6G-56" value="&lt;u style=&quot;font-size: 14px;&quot;&gt;&lt;b style=&quot;font-size: 14px;&quot;&gt;sup_id&lt;/b&gt;&lt;/u&gt;" style="ellipse;whiteSpace=wrap;html=1;fontSize=14;" vertex="1" parent="1">
          <mxGeometry x="570" y="180" width="90" height="40" as="geometry" />
        </mxCell>
        <mxCell id="IZJPOaPg8CAI-Ycyml6G-57" value="&lt;span style=&quot;font-size: 14px;&quot;&gt;phone&lt;/span&gt;" style="ellipse;whiteSpace=wrap;html=1;fontStyle=0;fontSize=14;" vertex="1" parent="1">
          <mxGeometry x="330" y="170" width="90" height="40" as="geometry" />
        </mxCell>
        <mxCell id="IZJPOaPg8CAI-Ycyml6G-58" value="&lt;span style=&quot;font-size: 14px;&quot;&gt;address&lt;/span&gt;" style="ellipse;whiteSpace=wrap;html=1;fontStyle=0;fontSize=14;" vertex="1" parent="1">
          <mxGeometry x="400" y="130" width="90" height="40" as="geometry" />
        </mxCell>
        <mxCell id="IZJPOaPg8CAI-Ycyml6G-59" value="&lt;span style=&quot;font-size: 14px;&quot;&gt;email&lt;/span&gt;" style="ellipse;whiteSpace=wrap;html=1;fontStyle=0;fontSize=14;" vertex="1" parent="1">
          <mxGeometry x="330" y="230" width="90" height="40" as="geometry" />
        </mxCell>
        <mxCell id="IZJPOaPg8CAI-Ycyml6G-60" value="bank_account" style="ellipse;whiteSpace=wrap;html=1;fontStyle=0;fontSize=14;" vertex="1" parent="1">
          <mxGeometry x="330" y="290" width="90" height="40" as="geometry" />
        </mxCell>
        <mxCell id="IZJPOaPg8CAI-Ycyml6G-62" value="&lt;span style=&quot;font-size: 14px;&quot;&gt;tax_code&lt;/span&gt;" style="ellipse;whiteSpace=wrap;html=1;fontStyle=0;fontSize=14;" vertex="1" parent="1">
          <mxGeometry x="610" y="240" width="90" height="40" as="geometry" />
        </mxCell>
        <mxCell id="IZJPOaPg8CAI-Ycyml6G-65" style="rounded=0;orthogonalLoop=1;jettySize=auto;html=1;entryX=1;entryY=0.75;entryDx=0;entryDy=0;endArrow=none;endFill=0;exitX=0;exitY=0.5;exitDx=0;exitDy=0;fontSize=14;" edge="1" parent="1" source="IZJPOaPg8CAI-Ycyml6G-62" target="IZJPOaPg8CAI-Ycyml6G-54">
          <mxGeometry relative="1" as="geometry">
            <mxPoint x="455" y="400" as="sourcePoint" />
            <mxPoint x="515" y="310" as="targetPoint" />
          </mxGeometry>
        </mxCell>
        <mxCell id="IZJPOaPg8CAI-Ycyml6G-66" style="rounded=0;orthogonalLoop=1;jettySize=auto;html=1;entryX=0;entryY=0.5;entryDx=0;entryDy=0;endArrow=none;endFill=0;exitX=1;exitY=0;exitDx=0;exitDy=0;fontSize=14;" edge="1" parent="1" source="IZJPOaPg8CAI-Ycyml6G-60" target="IZJPOaPg8CAI-Ycyml6G-54">
          <mxGeometry relative="1" as="geometry">
            <mxPoint x="515" y="360" as="sourcePoint" />
            <mxPoint x="515" y="310" as="targetPoint" />
          </mxGeometry>
        </mxCell>
        <mxCell id="IZJPOaPg8CAI-Ycyml6G-67" style="rounded=0;orthogonalLoop=1;jettySize=auto;html=1;entryX=0;entryY=0.25;entryDx=0;entryDy=0;endArrow=none;endFill=0;exitX=1;exitY=0.5;exitDx=0;exitDy=0;fontSize=14;" edge="1" parent="1" source="IZJPOaPg8CAI-Ycyml6G-59" target="IZJPOaPg8CAI-Ycyml6G-54">
          <mxGeometry relative="1" as="geometry">
            <mxPoint x="417" y="306" as="sourcePoint" />
            <mxPoint x="465" y="290" as="targetPoint" />
          </mxGeometry>
        </mxCell>
        <mxCell id="IZJPOaPg8CAI-Ycyml6G-69" style="rounded=0;orthogonalLoop=1;jettySize=auto;html=1;endArrow=none;endFill=0;fontSize=14;" edge="1" parent="1" source="IZJPOaPg8CAI-Ycyml6G-73" target="IZJPOaPg8CAI-Ycyml6G-74">
          <mxGeometry relative="1" as="geometry" />
        </mxCell>
        <mxCell id="IZJPOaPg8CAI-Ycyml6G-70" style="rounded=0;orthogonalLoop=1;jettySize=auto;html=1;entryX=0.5;entryY=1;entryDx=0;entryDy=0;endArrow=none;endFill=0;fontSize=14;" edge="1" parent="1" source="IZJPOaPg8CAI-Ycyml6G-73" target="IZJPOaPg8CAI-Ycyml6G-75">
          <mxGeometry relative="1" as="geometry" />
        </mxCell>
        <mxCell id="IZJPOaPg8CAI-Ycyml6G-120" style="rounded=0;orthogonalLoop=1;jettySize=auto;html=1;entryX=0;entryY=0;entryDx=0;entryDy=0;endArrow=none;endFill=0;fontSize=14;" edge="1" parent="1" source="IZJPOaPg8CAI-Ycyml6G-73" target="IZJPOaPg8CAI-Ycyml6G-119">
          <mxGeometry relative="1" as="geometry" />
        </mxCell>
        <mxCell id="IZJPOaPg8CAI-Ycyml6G-122" value="( 1 , 1 )" style="edgeLabel;html=1;align=center;verticalAlign=middle;resizable=0;points=[];fontSize=14;" vertex="1" connectable="0" parent="IZJPOaPg8CAI-Ycyml6G-120">
          <mxGeometry x="-0.3516" y="-1" relative="1" as="geometry">
            <mxPoint as="offset" />
          </mxGeometry>
        </mxCell>
        <mxCell id="IZJPOaPg8CAI-Ycyml6G-73" value="BOOK_ENTRY" style="rounded=0;whiteSpace=wrap;html=1;fillColor=#f5f5f5;fontColor=#333333;strokeColor=#666666;fontSize=14;" vertex="1" parent="1">
          <mxGeometry x="170" y="430" width="100" height="40" as="geometry" />
        </mxCell>
        <mxCell id="IZJPOaPg8CAI-Ycyml6G-74" value="date_entry" style="ellipse;whiteSpace=wrap;html=1;fontSize=14;" vertex="1" parent="1">
          <mxGeometry x="160" y="530" width="90" height="40" as="geometry" />
        </mxCell>
        <mxCell id="IZJPOaPg8CAI-Ycyml6G-75" value="&lt;u style=&quot;font-size: 14px;&quot;&gt;&lt;b style=&quot;font-size: 14px;&quot;&gt;book_entry_id&lt;/b&gt;&lt;/u&gt;" style="ellipse;whiteSpace=wrap;html=1;fontSize=14;" vertex="1" parent="1">
          <mxGeometry x="220" y="485" width="90" height="40" as="geometry" />
        </mxCell>
        <mxCell id="IZJPOaPg8CAI-Ycyml6G-79" value="&lt;span style=&quot;font-size: 14px;&quot;&gt;amount&lt;/span&gt;" style="ellipse;whiteSpace=wrap;html=1;fontStyle=0;fontSize=14;" vertex="1" parent="1">
          <mxGeometry x="110" y="485" width="90" height="40" as="geometry" />
        </mxCell>
        <mxCell id="IZJPOaPg8CAI-Ycyml6G-85" style="rounded=0;orthogonalLoop=1;jettySize=auto;html=1;entryX=0.5;entryY=1;entryDx=0;entryDy=0;endArrow=none;endFill=0;exitX=0.5;exitY=0;exitDx=0;exitDy=0;fontSize=14;" edge="1" parent="1" source="IZJPOaPg8CAI-Ycyml6G-79" target="IZJPOaPg8CAI-Ycyml6G-73">
          <mxGeometry relative="1" as="geometry">
            <mxPoint x="522.5" y="695" as="sourcePoint" />
            <mxPoint x="522.5" y="645" as="targetPoint" />
          </mxGeometry>
        </mxCell>
        <mxCell id="IZJPOaPg8CAI-Ycyml6G-100" style="rounded=0;orthogonalLoop=1;jettySize=auto;html=1;entryX=1;entryY=0.25;entryDx=0;entryDy=0;endArrow=none;endFill=0;fontSize=14;" edge="1" parent="1" source="IZJPOaPg8CAI-Ycyml6G-97" target="IZJPOaPg8CAI-Ycyml6G-73">
          <mxGeometry relative="1" as="geometry" />
        </mxCell>
        <mxCell id="IZJPOaPg8CAI-Ycyml6G-109" value="( 1 , 1 )" style="edgeLabel;html=1;align=center;verticalAlign=middle;resizable=0;points=[];fontSize=14;" vertex="1" connectable="0" parent="IZJPOaPg8CAI-Ycyml6G-100">
          <mxGeometry x="0.5555" relative="1" as="geometry">
            <mxPoint as="offset" />
          </mxGeometry>
        </mxCell>
        <mxCell id="IZJPOaPg8CAI-Ycyml6G-97" value="import" style="rhombus;whiteSpace=wrap;html=1;fillColor=#fff2cc;strokeColor=#d6b656;fontSize=14;" vertex="1" parent="1">
          <mxGeometry x="457.5" y="390" width="95" height="50" as="geometry" />
        </mxCell>
        <mxCell id="IZJPOaPg8CAI-Ycyml6G-101" value="has details of" style="rhombus;whiteSpace=wrap;html=1;fontSize=14;fillColor=#fff2cc;strokeColor=#d6b656;" vertex="1" parent="1">
          <mxGeometry x="40" y="345" width="105" height="50" as="geometry" />
        </mxCell>
        <mxCell id="IZJPOaPg8CAI-Ycyml6G-102" style="rounded=0;orthogonalLoop=1;jettySize=auto;html=1;entryX=0;entryY=0;entryDx=0;entryDy=0;endArrow=none;endFill=0;exitX=1;exitY=0.75;exitDx=0;exitDy=0;fontSize=14;" edge="1" parent="1" source="IZJPOaPg8CAI-Ycyml6G-7" target="IZJPOaPg8CAI-Ycyml6G-101">
          <mxGeometry relative="1" as="geometry">
            <mxPoint x="32" y="270" as="sourcePoint" />
            <mxPoint x="105" y="230" as="targetPoint" />
          </mxGeometry>
        </mxCell>
        <mxCell id="IZJPOaPg8CAI-Ycyml6G-144" value="( 1 , n )" style="edgeLabel;html=1;align=center;verticalAlign=middle;resizable=0;points=[];fontSize=14;" vertex="1" connectable="0" parent="IZJPOaPg8CAI-Ycyml6G-102">
          <mxGeometry x="-0.4859" relative="1" as="geometry">
            <mxPoint x="7" y="13" as="offset" />
          </mxGeometry>
        </mxCell>
        <mxCell id="IZJPOaPg8CAI-Ycyml6G-103" style="rounded=0;orthogonalLoop=1;jettySize=auto;html=1;entryX=1;entryY=1;entryDx=0;entryDy=0;endArrow=none;endFill=0;exitX=0.5;exitY=0;exitDx=0;exitDy=0;fontSize=14;" edge="1" parent="1" source="IZJPOaPg8CAI-Ycyml6G-73" target="IZJPOaPg8CAI-Ycyml6G-101">
          <mxGeometry relative="1" as="geometry">
            <mxPoint x="45" y="300" as="sourcePoint" />
            <mxPoint x="79" y="353" as="targetPoint" />
          </mxGeometry>
        </mxCell>
        <mxCell id="IZJPOaPg8CAI-Ycyml6G-104" value="quantity" style="ellipse;whiteSpace=wrap;html=1;fontSize=14;" vertex="1" parent="1">
          <mxGeometry x="100" y="290" width="90" height="40" as="geometry" />
        </mxCell>
        <mxCell id="IZJPOaPg8CAI-Ycyml6G-105" value="import_unit_price" style="ellipse;whiteSpace=wrap;html=1;fontSize=14;" vertex="1" parent="1">
          <mxGeometry x="160" y="345" width="100" height="40" as="geometry" />
        </mxCell>
        <mxCell id="IZJPOaPg8CAI-Ycyml6G-106" style="rounded=0;orthogonalLoop=1;jettySize=auto;html=1;entryX=1;entryY=0;entryDx=0;entryDy=0;endArrow=none;endFill=0;exitX=0.5;exitY=1;exitDx=0;exitDy=0;fontSize=14;" edge="1" parent="1" source="IZJPOaPg8CAI-Ycyml6G-104" target="IZJPOaPg8CAI-Ycyml6G-101">
          <mxGeometry relative="1" as="geometry">
            <mxPoint x="45" y="300" as="sourcePoint" />
            <mxPoint x="84" y="368" as="targetPoint" />
          </mxGeometry>
        </mxCell>
        <mxCell id="IZJPOaPg8CAI-Ycyml6G-107" style="rounded=0;orthogonalLoop=1;jettySize=auto;html=1;entryX=0.822;entryY=0.295;entryDx=0;entryDy=0;endArrow=none;endFill=0;exitX=0;exitY=0;exitDx=0;exitDy=0;entryPerimeter=0;fontSize=14;" edge="1" parent="1" source="IZJPOaPg8CAI-Ycyml6G-105" target="IZJPOaPg8CAI-Ycyml6G-101">
          <mxGeometry relative="1" as="geometry">
            <mxPoint x="155" y="340" as="sourcePoint" />
            <mxPoint x="131" y="368" as="targetPoint" />
          </mxGeometry>
        </mxCell>
        <mxCell id="IZJPOaPg8CAI-Ycyml6G-111" style="rounded=0;orthogonalLoop=1;jettySize=auto;html=1;endArrow=none;endFill=0;fontSize=14;" edge="1" parent="1" source="IZJPOaPg8CAI-Ycyml6G-113" target="IZJPOaPg8CAI-Ycyml6G-114">
          <mxGeometry relative="1" as="geometry" />
        </mxCell>
        <mxCell id="IZJPOaPg8CAI-Ycyml6G-113" value="EMPLOYEE" style="rounded=0;whiteSpace=wrap;html=1;fillColor=#f5f5f5;fontColor=#333333;strokeColor=#666666;fontSize=14;" vertex="1" parent="1">
          <mxGeometry x="510" y="520" width="100" height="40" as="geometry" />
        </mxCell>
        <mxCell id="IZJPOaPg8CAI-Ycyml6G-114" value="name" style="ellipse;whiteSpace=wrap;html=1;fontSize=14;" vertex="1" parent="1">
          <mxGeometry x="610" y="575" width="90" height="40" as="geometry" />
        </mxCell>
        <mxCell id="IZJPOaPg8CAI-Ycyml6G-116" value="&lt;span style=&quot;font-size: 14px;&quot;&gt;emp_id&lt;/span&gt;" style="ellipse;whiteSpace=wrap;html=1;fontStyle=1;fontSize=14;" vertex="1" parent="1">
          <mxGeometry x="510" y="575" width="90" height="40" as="geometry" />
        </mxCell>
        <mxCell id="IZJPOaPg8CAI-Ycyml6G-117" style="rounded=0;orthogonalLoop=1;jettySize=auto;html=1;entryX=0.5;entryY=1;entryDx=0;entryDy=0;endArrow=none;endFill=0;exitX=0.5;exitY=0;exitDx=0;exitDy=0;fontSize=14;" edge="1" parent="1" source="IZJPOaPg8CAI-Ycyml6G-116" target="IZJPOaPg8CAI-Ycyml6G-113">
          <mxGeometry relative="1" as="geometry">
            <mxPoint x="862.5" y="785" as="sourcePoint" />
            <mxPoint x="862.5" y="735" as="targetPoint" />
          </mxGeometry>
        </mxCell>
        <mxCell id="IZJPOaPg8CAI-Ycyml6G-121" style="rounded=0;orthogonalLoop=1;jettySize=auto;html=1;entryX=0;entryY=0.75;entryDx=0;entryDy=0;endArrow=none;endFill=0;fontSize=14;" edge="1" parent="1" source="IZJPOaPg8CAI-Ycyml6G-119" target="IZJPOaPg8CAI-Ycyml6G-113">
          <mxGeometry relative="1" as="geometry" />
        </mxCell>
        <mxCell id="IZJPOaPg8CAI-Ycyml6G-123" value="( 0 , n )" style="edgeLabel;html=1;align=center;verticalAlign=middle;resizable=0;points=[];fontSize=14;" vertex="1" connectable="0" parent="IZJPOaPg8CAI-Ycyml6G-121">
          <mxGeometry x="0.5742" y="1" relative="1" as="geometry">
            <mxPoint x="-18" y="-10" as="offset" />
          </mxGeometry>
        </mxCell>
        <mxCell id="IZJPOaPg8CAI-Ycyml6G-119" value="make" style="rhombus;whiteSpace=wrap;html=1;fillColor=#fff2cc;strokeColor=#d6b656;fontSize=14;" vertex="1" parent="1">
          <mxGeometry x="330" y="470" width="95" height="50" as="geometry" />
        </mxCell>
        <mxCell id="IZJPOaPg8CAI-Ycyml6G-145" value="( 1 , n )" style="edgeLabel;html=1;align=center;verticalAlign=middle;resizable=0;points=[];fontSize=14;" vertex="1" connectable="0" parent="1">
          <mxGeometry x="79.99637250773202" y="340.00336461670094" as="geometry">
            <mxPoint x="94" y="70" as="offset" />
          </mxGeometry>
        </mxCell>
        <mxCell id="IZJPOaPg8CAI-Ycyml6G-146" style="rounded=0;orthogonalLoop=1;jettySize=auto;html=1;endArrow=none;endFill=0;fontSize=14;" edge="1" parent="1" source="IZJPOaPg8CAI-Ycyml6G-147" target="IZJPOaPg8CAI-Ycyml6G-148">
          <mxGeometry relative="1" as="geometry" />
        </mxCell>
        <mxCell id="IZJPOaPg8CAI-Ycyml6G-152" style="rounded=0;orthogonalLoop=1;jettySize=auto;html=1;endArrow=none;endFill=0;fontSize=14;" edge="1" parent="1" source="IZJPOaPg8CAI-Ycyml6G-147" target="IZJPOaPg8CAI-Ycyml6G-151">
          <mxGeometry relative="1" as="geometry" />
        </mxCell>
        <mxCell id="IZJPOaPg8CAI-Ycyml6G-154" value="(1 , 1 )" style="edgeLabel;html=1;align=center;verticalAlign=middle;resizable=0;points=[];fontSize=14;" vertex="1" connectable="0" parent="IZJPOaPg8CAI-Ycyml6G-152">
          <mxGeometry x="-0.7618" y="1" relative="1" as="geometry">
            <mxPoint x="18" y="-6" as="offset" />
          </mxGeometry>
        </mxCell>
        <mxCell id="IZJPOaPg8CAI-Ycyml6G-147" value="INVOICE" style="rounded=0;whiteSpace=wrap;html=1;fillColor=#f5f5f5;fontColor=#333333;strokeColor=#666666;fontSize=14;" vertex="1" parent="1">
          <mxGeometry x="-60" y="690" width="100" height="40" as="geometry" />
        </mxCell>
        <mxCell id="IZJPOaPg8CAI-Ycyml6G-148" value="date" style="ellipse;whiteSpace=wrap;html=1;fontSize=14;" vertex="1" parent="1">
          <mxGeometry x="40" y="745" width="90" height="40" as="geometry" />
        </mxCell>
        <mxCell id="IZJPOaPg8CAI-Ycyml6G-149" value="&lt;span style=&quot;font-size: 14px;&quot;&gt;&lt;u style=&quot;font-size: 14px;&quot;&gt;&lt;b style=&quot;font-size: 14px;&quot;&gt;invoice_id&lt;/b&gt;&lt;/u&gt;&lt;/span&gt;" style="ellipse;whiteSpace=wrap;html=1;fontStyle=0;fontSize=14;" vertex="1" parent="1">
          <mxGeometry x="-60" y="745" width="90" height="40" as="geometry" />
        </mxCell>
        <mxCell id="IZJPOaPg8CAI-Ycyml6G-150" style="rounded=0;orthogonalLoop=1;jettySize=auto;html=1;entryX=0.5;entryY=1;entryDx=0;entryDy=0;endArrow=none;endFill=0;exitX=0.5;exitY=0;exitDx=0;exitDy=0;fontSize=14;" edge="1" parent="1" source="IZJPOaPg8CAI-Ycyml6G-149" target="IZJPOaPg8CAI-Ycyml6G-147">
          <mxGeometry relative="1" as="geometry">
            <mxPoint x="292.5" y="955" as="sourcePoint" />
            <mxPoint x="292.5" y="905" as="targetPoint" />
          </mxGeometry>
        </mxCell>
        <mxCell id="IZJPOaPg8CAI-Ycyml6G-153" style="rounded=0;orthogonalLoop=1;jettySize=auto;html=1;entryX=0;entryY=1;entryDx=0;entryDy=0;endArrow=none;endFill=0;fontSize=14;" edge="1" parent="1" source="IZJPOaPg8CAI-Ycyml6G-151" target="IZJPOaPg8CAI-Ycyml6G-113">
          <mxGeometry relative="1" as="geometry" />
        </mxCell>
        <mxCell id="IZJPOaPg8CAI-Ycyml6G-155" value="( 0 , n )" style="edgeLabel;html=1;align=center;verticalAlign=middle;resizable=0;points=[];fontSize=14;" vertex="1" connectable="0" parent="IZJPOaPg8CAI-Ycyml6G-153">
          <mxGeometry x="0.3271" y="-1" relative="1" as="geometry">
            <mxPoint as="offset" />
          </mxGeometry>
        </mxCell>
        <mxCell id="IZJPOaPg8CAI-Ycyml6G-151" value="create" style="rhombus;whiteSpace=wrap;html=1;fillColor=#fff2cc;strokeColor=#d6b656;fontSize=14;" vertex="1" parent="1">
          <mxGeometry x="220" y="620" width="80" height="80" as="geometry" />
        </mxCell>
        <mxCell id="IZJPOaPg8CAI-Ycyml6G-157" value="include" style="rhombus;whiteSpace=wrap;html=1;fillColor=#fff2cc;strokeColor=#d6b656;fontSize=14;" vertex="1" parent="1">
          <mxGeometry x="-50" y="470" width="80" height="80" as="geometry" />
        </mxCell>
        <mxCell id="IZJPOaPg8CAI-Ycyml6G-158" value="quantity" style="ellipse;whiteSpace=wrap;html=1;fontSize=14;" vertex="1" parent="1">
          <mxGeometry x="-190" y="465" width="90" height="40" as="geometry" />
        </mxCell>
        <mxCell id="IZJPOaPg8CAI-Ycyml6G-159" value="sale_unit_price" style="ellipse;whiteSpace=wrap;html=1;fontSize=14;" vertex="1" parent="1">
          <mxGeometry x="-190" y="525" width="90" height="40" as="geometry" />
        </mxCell>
        <mxCell id="IZJPOaPg8CAI-Ycyml6G-160" style="rounded=0;orthogonalLoop=1;jettySize=auto;html=1;entryX=0;entryY=0;entryDx=0;entryDy=0;endArrow=none;endFill=0;exitX=1;exitY=0.5;exitDx=0;exitDy=0;fontSize=14;" edge="1" parent="1" source="IZJPOaPg8CAI-Ycyml6G-158" target="IZJPOaPg8CAI-Ycyml6G-157">
          <mxGeometry relative="1" as="geometry">
            <mxPoint x="-65" y="400" as="sourcePoint" />
            <mxPoint x="-5" y="310" as="targetPoint" />
          </mxGeometry>
        </mxCell>
        <mxCell id="IZJPOaPg8CAI-Ycyml6G-161" style="rounded=0;orthogonalLoop=1;jettySize=auto;html=1;entryX=0;entryY=1;entryDx=0;entryDy=0;endArrow=none;endFill=0;exitX=1;exitY=0.5;exitDx=0;exitDy=0;fontSize=14;" edge="1" parent="1" source="IZJPOaPg8CAI-Ycyml6G-159" target="IZJPOaPg8CAI-Ycyml6G-157">
          <mxGeometry relative="1" as="geometry">
            <mxPoint x="-90" y="495" as="sourcePoint" />
            <mxPoint x="-50" y="495" as="targetPoint" />
          </mxGeometry>
        </mxCell>
        <mxCell id="IZJPOaPg8CAI-Ycyml6G-163" style="rounded=0;orthogonalLoop=1;jettySize=auto;html=1;entryX=0.5;entryY=1;entryDx=0;entryDy=0;endArrow=none;endFill=0;exitX=0.5;exitY=0;exitDx=0;exitDy=0;fontSize=14;" edge="1" parent="1" source="IZJPOaPg8CAI-Ycyml6G-147" target="IZJPOaPg8CAI-Ycyml6G-157">
          <mxGeometry relative="1" as="geometry">
            <mxPoint x="-5" y="310" as="sourcePoint" />
            <mxPoint x="-10" y="495" as="targetPoint" />
          </mxGeometry>
        </mxCell>
        <mxCell id="IZJPOaPg8CAI-Ycyml6G-164" value="( 0 , n )" style="edgeLabel;html=1;align=center;verticalAlign=middle;resizable=0;points=[];fontSize=14;" vertex="1" connectable="0" parent="IZJPOaPg8CAI-Ycyml6G-163">
          <mxGeometry x="-0.3802" y="1" relative="1" as="geometry">
            <mxPoint as="offset" />
          </mxGeometry>
        </mxCell>
      </root>
    </mxGraphModel>
  </diagram>
</mxfile>
